<svg width="64" height="64" viewBox="0 0 64 64" fill="none" xmlns="http://www.w3.org/2000/svg">
<path d="M46 32H40V51H46V32Z" fill="#64C37D"/>
<path d="M35 34H29V40H35V34Z" fill="#FF5023"/>
<path d="M59 23V27H55V23C55.0016 22.4701 55.2128 21.9623 55.5875 21.5875C55.9623 21.2128 56.4701 21.0016 57 21C57.5292 21.0039 58.0356 21.2159 58.4099 21.5901C58.7841 21.9643 58.9961 22.4708 59 23Z" fill="#D80027"/>
<path d="M61 11V13L32 19L3 13V11L32 3L61 11Z" fill="#FFDA44"/>
<path d="M51 15.0701V29.0001C51 31.9701 46 34.5001 38.93 35.5201C36.6343 35.8446 34.3185 36.005 32 36.0001C21.51 36.0001 13 32.8701 13 29.0001V15.0701L32 19.0001L51 15.0701Z" fill="#FF9811"/>
<path d="M15 32.13C16.92 33.54 20.1 34.68 24 35.35V57H15V32.13Z" fill="#9BFBFF"/>
<path d="M35 43V56L33 54L32 55L31 54L29 56V43H35Z" fill="#FF5023"/>
<path d="M35 40H29V43H35V40Z" fill="#E0E0E2"/>
<path d="M35 56V57L32 61L29 57V56L31 54L32 55L33 54L35 56Z" fill="#2D2D30"/>
<path d="M46 51L43 57L40 51H46Z" fill="#00665A"/>
<path d="M61.27 10.0401L32.27 2.04005C32.0935 1.99007 31.9065 1.99007 31.73 2.04005L2.73 10.0401C2.52042 10.0988 2.33574 10.2244 2.20399 10.3976C2.07224 10.5709 2.00062 10.7824 2 11.0001V13.0001C1.99995 13.2306 2.07956 13.4541 2.22534 13.6326C2.37112 13.8112 2.57413 13.9339 2.8 13.9801L12 15.8801V29.0001C12.0355 29.7187 12.234 30.4199 12.5805 31.0506C12.927 31.6812 13.4124 32.2247 14 32.6401V57.0001C14 57.2653 14.1054 57.5196 14.2929 57.7072C14.4804 57.8947 14.7348 58.0001 15 58.0001H24C24.2652 58.0001 24.5196 57.8947 24.7071 57.7072C24.8946 57.5196 25 57.2653 25 57.0001V36.5101C25.98 36.6501 26.99 36.7601 28 36.8401V57.0001C27.9988 57.2166 28.0691 57.4275 28.2 57.6001L31.2 61.6001C31.2931 61.7242 31.4139 61.8251 31.5528 61.8945C31.6916 61.9639 31.8448 62.0001 32 62.0001C32.1552 62.0001 32.3084 61.9639 32.4472 61.8945C32.5861 61.8251 32.7069 61.7242 32.8 61.6001L35.8 57.6001C35.9309 57.4275 36.0012 57.2166 36 57.0001V36.8401C37.01 36.7601 38.02 36.6501 39 36.5101V51.0001C39.0009 51.1566 39.0386 51.3107 39.11 51.4501L42.11 57.4501C42.1939 57.6139 42.3214 57.7513 42.4784 57.8473C42.6355 57.9433 42.816 57.9941 43 57.9941C43.184 57.9941 43.3645 57.9433 43.5216 57.8473C43.6786 57.7513 43.8061 57.6139 43.89 57.4501L46.89 51.4501C46.9614 51.3107 46.9991 51.1566 47 51.0001V34.4101C50.03 33.0901 52 31.2701 52 29.0001V15.8801L56 15.0601V20.1801C55.4173 20.3876 54.9126 20.7697 54.5548 21.2743C54.1969 21.7789 54.0032 22.3815 54 23.0001V27.0001C54 27.2653 54.1054 27.5196 54.2929 27.7072C54.4804 27.8947 54.7348 28.0001 55 28.0001H59C59.2652 28.0001 59.5196 27.8947 59.7071 27.7072C59.8946 27.5196 60 27.2653 60 27.0001V23.0001C59.9968 22.3815 59.8031 21.7789 59.4452 21.2743C59.0874 20.7697 58.5827 20.3876 58 20.1801V14.6401L61.2 13.9801C61.4259 13.9339 61.6289 13.8112 61.7747 13.6326C61.9204 13.4541 62 13.2306 62 13.0001V11.0001C61.9994 10.7824 61.9278 10.5709 61.796 10.3976C61.6643 10.2244 61.4796 10.0988 61.27 10.0401ZM23 56.0001H16V52.0001H20V50.0001H16V45.0001H18V43.0001H16V38.0001H20V36.0001H16V33.9301C18.2176 35.0012 20.5736 35.7585 23 36.1801V56.0001ZM34 56.6701L32 59.3301L30 56.6701V56.4101L31 55.4101L31.29 55.7101C31.4788 55.8974 31.734 56.0025 32 56.0025C32.266 56.0025 32.5212 55.8974 32.71 55.7101L33 55.4101L34 56.4101V56.6701ZM34 53.5901L33.71 53.2901C33.5212 53.1027 33.266 52.9976 33 52.9976C32.734 52.9976 32.4788 53.1027 32.29 53.2901L32 53.5901L31.71 53.2901C31.5212 53.1027 31.266 52.9976 31 52.9976C30.734 52.9976 30.4788 53.1027 30.29 53.2901L30 53.5901V44.0001H34V53.5901ZM34 42.0001H30V41.0001H34V42.0001ZM34 39.0001H30V36.9601C30.67 36.9901 31.33 37.0001 32 37.0001C32.67 37.0001 33.33 36.9901 34 36.9601V39.0001ZM43 54.7601L41.62 52.0001H44.38L43 54.7601ZM45 50.0001H41V36.1801C42.3544 35.929 43.6907 35.5882 45 35.1601V50.0001ZM50 29.0001C50 31.8401 42.61 35.0001 32 35.0001C21.39 35.0001 14 31.8401 14 29.0001V16.3001L31.8 19.9801C31.932 20.0067 32.068 20.0067 32.2 19.9801L50 16.3001V29.0001ZM58 26.0001H56V23.0001C56 22.7348 56.1054 22.4805 56.2929 22.2929C56.4804 22.1054 56.7348 22.0001 57 22.0001C57.2652 22.0001 57.5196 22.1054 57.7071 22.2929C57.8946 22.4805 58 22.7348 58 23.0001V26.0001ZM60 12.1901L58 12.6001V12.0001H56V13.0101L32 17.9801L4 12.1901V11.7601L32 4.04005L60 11.7601V12.1901Z" fill="black"/>
<path d="M44 37H42V48H44V37Z" fill="black"/>
</svg>
