<svg width="75" height="75" viewBox="0 0 75 75" fill="none" xmlns="http://www.w3.org/2000/svg">
<path d="M53.1244 6.24944C57.2649 6.26181 61.2323 7.9121 64.1601 10.8399C67.0879 13.7677 68.7382 17.7351 68.7506 21.8756V53.1244C68.7382 57.2649 67.0879 61.2323 64.1601 64.1601C61.2323 67.0879 57.2649 68.7382 53.1244 68.7506H21.8756C17.7351 68.7382 13.7677 67.0879 10.8399 64.1601C7.9121 61.2323 6.26181 57.2649 6.24944 53.1244V21.8756C6.26181 17.7351 7.9121 13.7677 10.8399 10.8399C13.7677 7.9121 17.7351 6.26181 21.8756 6.24944H53.1244ZM53.1244 0H21.8756C9.84375 0 0 9.84375 0 21.8756V53.1244C0 65.1562 9.84375 75 21.8756 75H53.1244C65.1562 75 75 65.1562 75 53.1244V21.8756C75 9.84375 65.1562 0 53.1244 0Z" fill="url(#paint0_linear)"/>
<path d="M57.8119 21.8755C56.8848 21.8755 55.9786 21.6006 55.2077 21.0855C54.4369 20.5704 53.836 19.8383 53.4813 18.9818C53.1265 18.1253 53.0336 17.1828 53.2145 16.2735C53.3954 15.3642 53.8418 14.529 54.4974 13.8734C55.1529 13.2179 55.9882 12.7714 56.8975 12.5906C57.8067 12.4097 58.7492 12.5025 59.6058 12.8573C60.4623 13.2121 61.1944 13.8129 61.7095 14.5838C62.2245 15.3546 62.4994 16.2609 62.4994 17.188C62.5008 17.8039 62.3804 18.4141 62.1453 18.9834C61.9102 19.5527 61.565 20.07 61.1295 20.5055C60.6939 20.941 60.1766 21.2863 59.6073 21.5214C59.038 21.7565 58.4279 21.8768 57.8119 21.8755ZM37.5 24.9994C39.9724 24.9994 42.3892 25.7325 44.4449 27.1061C46.5006 28.4797 48.1029 30.432 49.049 32.7162C49.9951 35.0004 50.2427 37.5138 49.7604 39.9387C49.278 42.3635 48.0875 44.5909 46.3392 46.3392C44.591 48.0874 42.3636 49.278 39.9387 49.7603C37.5139 50.2426 35.0004 49.9951 32.7162 49.0489C30.4321 48.1028 28.4797 46.5006 27.1062 44.4449C25.7326 42.3892 24.9994 39.9723 24.9994 37.4999C25.003 34.1857 26.3211 31.0082 28.6647 28.6646C31.0082 26.3211 34.1857 25.0029 37.5 24.9994ZM37.5 18.7499C33.7916 18.7499 30.1665 19.8496 27.0831 21.9099C23.9996 23.9702 21.5964 26.8985 20.1773 30.3246C18.7581 33.7507 18.3868 37.5207 19.1103 41.1579C19.8337 44.795 21.6195 48.1359 24.2417 50.7582C26.864 53.3804 30.2049 55.1662 33.8421 55.8897C37.4792 56.6131 41.2492 56.2418 44.6753 54.8227C48.1014 53.4035 51.0298 51.0003 53.0901 47.9169C55.1503 44.8335 56.25 41.2083 56.25 37.4999C56.25 32.5271 54.2746 27.758 50.7583 24.2417C47.2419 20.7254 42.4728 18.7499 37.5 18.7499Z" fill="url(#paint1_linear)"/>
<defs>
<linearGradient id="paint0_linear" x1="37.5" y1="0" x2="37.5" y2="75" gradientUnits="userSpaceOnUse">
<stop stop-color="#6C63FF"/>
<stop offset="0.3" stop-color="#B3A03C" stop-opacity="0.587285"/>
<stop offset="0.680208" stop-color="#FF2121" stop-opacity="0.0592672"/>
<stop offset="0.966667" stop-color="#DC1111" stop-opacity="0.69"/>
</linearGradient>
<linearGradient id="paint1_linear" x1="12.6429" y1="9.38564" x2="61.8429" y2="63.3856" gradientUnits="userSpaceOnUse">
<stop stop-color="#1B0EED"/>
<stop offset="0.3" stop-color="#FACB16"/>
<stop offset="0.680208" stop-color="#FF2121" stop-opacity="0.0592672"/>
<stop offset="0.966667" stop-color="#DC1111" stop-opacity="0.69"/>
</linearGradient>
</defs>
</svg>
