<svg width="63" height="79" viewBox="0 0 63 79" fill="none" xmlns="http://www.w3.org/2000/svg">
<path d="M62.6555 50.165C62.3109 49.6219 61.7203 49.1775 61.1297 48.9306C60.2437 48.585 59.2594 48.5356 58.3242 48.5356C53.6977 48.5356 46.2656 50.56 43.6078 51.35C43.0172 49.9675 41.393 48.6838 37.4555 48.6838C35.093 48.6838 32.8781 49.1775 32.7797 49.1775C32.0414 49.3256 31.4016 49.2763 30.5156 49.0294C28.7437 48.5356 27.2672 47.4494 25.6922 46.3631C24.068 45.2275 22.4437 44.0919 20.4258 43.45C17.1281 42.4625 14.0273 42.2156 11.2711 42.7588C9.94219 43.0056 8.6625 43.4994 7.38281 43.9438C6.25078 44.3881 5.16797 44.7831 4.03594 45.03C3.78984 45.0794 3.54375 45.1781 3.24844 45.2275C2.65781 45.3756 2.01797 45.5731 1.575 45.5731C1.42734 45.5731 1.37812 45.5731 1.32891 45.5238L0 45.1288C0 45.1288 0 55.0531 0 58.3613C0 59.1513 0.689062 59.6944 1.52578 59.6944C1.91953 59.6944 2.3625 59.5463 2.75625 59.4475C2.95312 59.3981 3.19922 59.2994 3.29766 59.2994L3.49453 59.25C5.16797 59.0031 6.84141 58.7563 8.46562 58.7563C10.7789 58.7563 22.2961 61.7188 26.5289 62.8544H26.5781C27.5133 63.0519 28.3992 63.1506 29.2852 63.1506C31.1555 63.1506 32.1891 62.7063 32.2875 62.6569C33.7148 62.015 36.3727 61.2744 36.3727 61.2744C40.95 59.9906 58.8164 54.3619 58.9641 54.3125C61.425 53.6213 62.7047 52.7325 62.9508 51.6463C63.0492 51.1031 62.9016 50.6094 62.6555 50.165ZM58.3734 52.3869C58.1766 52.4363 40.3594 58.065 35.782 59.3488C35.6836 59.3981 32.9766 60.1388 31.4016 60.8794C31.4016 60.8794 30.6633 61.225 29.2359 61.225C28.5469 61.225 27.7594 61.1263 26.9719 60.9781C25.2492 60.5338 11.4187 56.8306 8.46562 56.8306C6.69375 56.8306 4.92187 57.0775 3.19922 57.3738L3.00234 57.4231C2.70703 57.4725 2.46094 57.5713 2.16562 57.6206H2.11641C2.11641 53.4238 2.11641 49.4738 2.06719 47.5975C2.65781 47.5481 3.24844 47.3506 3.78984 47.2025C4.03594 47.1531 4.28203 47.0544 4.47891 47.005C5.75859 46.7088 6.93984 46.2644 8.12109 45.8694C9.35156 45.425 10.4836 44.9806 11.6648 44.7831C14.0766 44.2894 16.882 44.5363 19.8352 45.425C21.5578 45.9188 22.9852 46.9556 24.5109 48.0419C26.1352 49.1775 27.8578 50.3625 29.925 51.0044C31.1062 51.35 32.0906 51.3994 33.1242 51.1525C33.2227 51.1525 35.2406 50.7081 37.357 50.7081C39.2766 50.7081 41.6391 51.0538 41.8359 52.7325L41.8852 53.325C41.7375 53.3744 41.5406 53.4731 41.393 53.5225C40.4578 53.8681 39.5227 54.0656 38.5383 54.3125C37.5539 54.51 36.5695 54.7569 35.5852 55.0038C34.65 55.3 33.7148 55.4975 32.8289 55.3494C31.943 55.2013 30.9094 54.905 29.925 54.7569C28.9406 54.6088 27.907 54.4606 26.9227 54.4113C25.9383 54.3619 24.9047 54.3619 23.8711 54.4113C22.8867 54.51 21.9023 54.5594 20.8687 54.4606C21.8039 54.8063 22.8375 54.8556 23.8711 54.905C24.8555 54.9544 25.8398 55.0531 26.8242 55.1519C27.8086 55.3 28.793 55.4481 29.7281 55.695C30.2203 55.7938 30.7125 55.8925 31.1555 56.0406C31.6477 56.1394 32.1398 56.2875 32.6812 56.3863C33.7641 56.5344 34.8961 56.2875 35.8312 55.9419C36.7664 55.6456 37.7016 55.3988 38.6859 55.1025C39.6703 54.8063 40.6055 54.4606 41.5406 54.0163C41.6391 53.9669 41.7867 54.0656 41.8852 53.9669L43.0172 53.6213C43.1156 53.5719 52.8117 50.6094 58.1273 50.6094C59.9977 50.6094 60.5883 51.0044 60.6867 51.2019L60.7359 51.35C60.7359 51.5475 60.0961 51.8931 58.3734 52.3869Z" fill="#FFD037"/>
<path d="M31.5 20.7375C25.4953 20.7375 20.6719 25.5763 20.6719 31.6C20.6719 37.6238 25.4953 42.4625 31.5 42.4625C37.5047 42.4625 42.3281 37.6238 42.3281 31.6C42.3281 25.5763 37.5047 20.7375 31.5 20.7375ZM31.5 40.4875C26.6273 40.4875 22.6406 36.4882 22.6406 31.6C22.6406 26.7119 26.6273 22.7125 31.5 22.7125C36.3727 22.7125 40.3594 26.7119 40.3594 31.6C40.3594 36.4882 36.3727 40.4875 31.5 40.4875Z" fill="#FFD037"/>
<path d="M32.4844 30.7606C31.3524 30.3162 30.9094 30.02 30.9586 29.5756C31.0078 29.1806 31.3031 28.835 32.1399 28.8843C33.1242 28.9831 33.7149 29.2793 34.0102 29.4768L34.5024 28.045C34.0594 27.7981 33.4688 27.6006 32.632 27.5018L32.6813 26.3662L31.4016 26.2675L31.3524 27.5018C29.925 27.65 29.0391 28.4893 28.9899 29.6743C28.9406 30.9087 29.8266 31.6493 31.2047 32.1925C32.1891 32.5875 32.5828 32.9331 32.5336 33.4268C32.4844 33.9206 31.943 34.2168 31.2047 34.1674C30.368 34.1181 29.6297 33.8218 29.0883 33.4762L28.5961 34.9575C29.0391 35.2537 29.8758 35.5499 30.7617 35.6487L30.6633 36.8831L31.943 36.9325L32.0414 35.5993C33.5672 35.4512 34.4531 34.5131 34.5024 33.3281C34.5516 32.1431 34.0102 31.4025 32.4844 30.7606Z" fill="#FFD037"/>
<path d="M0.344518 12.9856C0.689049 13.5287 1.27967 13.9731 1.8703 14.22C2.75624 14.5656 3.74061 14.615 4.67577 14.615C9.30233 14.615 16.7344 12.5906 19.3922 11.8006C19.9828 13.1831 21.607 14.4669 25.5445 14.4669C27.907 14.4669 30.1219 13.9731 30.2203 13.9731C30.9586 13.825 31.5984 13.8744 32.4844 14.1213C34.2562 14.615 35.7328 15.7013 37.3078 16.7875C38.932 17.9231 40.5562 19.0588 42.5742 19.7006C45.8719 20.6881 48.9726 20.935 51.7289 20.3919C53.0578 20.145 54.3375 19.6513 55.6172 19.2069C56.7492 18.7625 57.832 18.3675 58.9641 18.1206C59.2101 18.0713 59.4562 17.9725 59.7516 17.9231C60.3422 17.775 60.982 17.5775 61.425 17.5775C61.5726 17.5775 61.6219 17.5775 61.6711 17.6269L62.9508 18.0219C62.9508 18.0219 62.9508 8.0975 62.9508 4.78937C62.9508 3.99937 62.2617 3.45625 61.425 3.45625C61.0312 3.45625 60.5883 3.60438 60.1945 3.70312C59.9976 3.7525 59.7516 3.85125 59.6531 3.85125L59.4562 3.90062C57.7828 4.1475 56.1094 4.39437 54.4851 4.39437C52.1719 4.39437 40.6547 1.43187 36.4219 0.29625C35.4867 0.09875 34.6008 0 33.7148 0C31.8445 0 30.8109 0.444375 30.7125 0.49375C29.2851 1.13563 26.6273 1.87625 26.6273 1.87625C22.05 3.16 4.18358 8.78875 4.03592 8.83813C1.57499 9.52938 0.295299 10.4181 0.0492053 11.5044C-0.0492322 12.0475 0.098424 12.5413 0.344518 12.9856ZM4.62655 10.7638C4.82342 10.7144 22.6406 5.08562 27.218 3.80187C27.3164 3.7525 30.0234 3.01187 31.5984 2.27125C31.5984 2.27125 32.3367 1.92563 33.764 1.92563C34.4531 1.92563 35.2406 2.02437 36.0281 2.1725C37.7508 2.61688 51.5812 6.32 54.5344 6.32C56.3062 6.32 58.0781 6.07312 59.8008 5.77688L59.9976 5.7275C60.293 5.67813 60.5391 5.57937 60.8344 5.53H60.8836C60.8836 9.72688 60.8836 13.6769 60.9328 15.5531C60.3422 15.6025 59.7516 15.8 59.2101 15.9481C58.9641 15.9975 58.718 16.0963 58.5211 16.1456C57.2414 16.4419 56.0601 16.8862 54.8789 17.2812C53.6484 17.7256 52.5164 18.17 51.3351 18.3675C48.9234 18.8612 46.118 18.6144 43.1648 17.7256C41.4422 17.2319 40.0148 16.195 38.4891 15.1088C36.8648 13.9731 35.1422 12.7881 33.075 12.1463C31.8937 11.8006 30.9094 11.7512 29.8758 11.9981C29.7773 11.9981 27.7594 12.4425 25.643 12.4425C23.7234 12.4425 21.3609 12.0969 21.1641 10.4181L21.1148 9.82562C21.2625 9.77625 21.4594 9.6775 21.607 9.62813C22.5422 9.2825 23.4773 9.085 24.4617 8.83813C25.4461 8.64062 26.4305 8.39375 27.4148 8.14688C28.35 7.85063 29.2851 7.65313 30.1711 7.80125C31.057 7.94938 32.0906 8.24563 33.075 8.39375C34.0594 8.54187 35.093 8.69 36.0773 8.73938C37.0617 8.78875 38.0953 8.78875 39.1289 8.73938C40.1133 8.64063 41.0976 8.59125 42.1312 8.69C41.1961 8.34438 40.1625 8.295 39.1289 8.24563C38.1445 8.19625 37.1601 8.0975 36.1758 7.99875C35.1914 7.85063 34.207 7.7025 33.2719 7.45563C32.7797 7.35688 32.2875 7.25812 31.8445 7.11C31.3523 7.01125 30.8601 6.86312 30.3187 6.76438C29.2359 6.61625 28.1039 6.86313 27.1687 7.20875C26.2336 7.505 25.2984 7.75187 24.3141 8.04812C23.3297 8.34437 22.3945 8.69 21.4594 9.13438C21.3609 9.18375 21.2133 9.085 21.1148 9.18375L19.9828 9.52938C19.8844 9.57875 10.1883 12.5413 4.87264 12.5413C3.00233 12.5413 2.41171 12.1463 2.31327 11.9488L2.26405 11.8006C2.26405 11.6031 2.90389 11.2575 4.62655 10.7638Z" fill="#FFD037"/>
</svg>
