<svg width="66" height="72" viewBox="0 0 66 72" fill="none" xmlns="http://www.w3.org/2000/svg">
<g clip-path="url(#clip0)">
<path d="M33 16.875C40.3846 16.875 47.4668 20.0752 52.6885 25.7716C57.9102 31.4681 60.8438 39.194 60.8438 47.25V48.375H5.15625V47.25C5.15625 39.194 8.08978 31.4681 13.3115 25.7716C18.5332 20.0752 25.6154 16.875 33 16.875Z" fill="#FFDD56"/>
<path d="M61.875 48.375H4.125C2.41637 48.375 1.03125 49.886 1.03125 51.75C1.03125 53.614 2.41637 55.125 4.125 55.125H61.875C63.5836 55.125 64.9688 53.614 64.9688 51.75C64.9688 49.886 63.5836 48.375 61.875 48.375Z" fill="#FFDD56"/>
<path d="M61.875 47.25H4.125C3.03098 47.25 1.98177 47.7241 1.20818 48.568C0.434597 49.4119 0 50.5565 0 51.75C0 52.9435 0.434597 54.0881 1.20818 54.932C1.98177 55.7759 3.03098 56.25 4.125 56.25H61.875C62.969 56.25 64.0182 55.7759 64.7918 54.932C65.5654 54.0881 66 52.9435 66 51.75C66 50.5565 65.5654 49.4119 64.7918 48.568C64.0182 47.7241 62.969 47.25 61.875 47.25ZM61.875 54H4.125C3.57799 54 3.05339 53.7629 2.66659 53.341C2.2798 52.919 2.0625 52.3467 2.0625 51.75C2.0625 51.1533 2.2798 50.581 2.66659 50.159C3.05339 49.7371 3.57799 49.5 4.125 49.5H61.875C62.422 49.5 62.9466 49.7371 63.3334 50.159C63.7202 50.581 63.9375 51.1533 63.9375 51.75C63.9375 52.3467 63.7202 52.919 63.3334 53.341C62.9466 53.7629 62.422 54 61.875 54Z" fill="black"/>
<path d="M39.6206 16.5826C38.94 16.4026 38.2388 16.2676 37.5169 16.1326L37.6613 18.4501C38.3625 18.5851 39.0844 18.7426 39.765 18.9451L39.6206 16.5826ZM49.5 21.4201C48.8378 20.8983 48.1492 20.4175 47.4375 19.9801V22.6126C48.1387 23.1076 48.84 23.6476 49.5 24.2101C52.7125 26.9415 55.3112 30.4366 57.0983 34.4293C58.8854 38.4219 59.8137 42.8069 59.8125 47.2501H6.1875C6.18631 42.8069 7.11461 38.4219 8.90169 34.4293C10.6888 30.4366 13.2875 26.9415 16.5 24.2101C17.16 23.6476 17.8612 23.1076 18.5625 22.6126V19.9801C17.8508 20.4175 17.1622 20.8983 16.5 21.4201C12.6818 24.3188 9.56247 28.1814 7.40776 32.6789C5.25305 37.1764 4.12682 42.1754 4.125 47.2501V48.3751C4.125 48.6734 4.23365 48.9596 4.42705 49.1706C4.62044 49.3815 4.88275 49.5001 5.15625 49.5001H60.8438C61.1173 49.5001 61.3796 49.3815 61.573 49.1706C61.7663 48.9596 61.875 48.6734 61.875 48.3751V47.2501C61.8732 42.1754 60.7469 37.1764 58.5922 32.6789C56.4375 28.1814 53.3182 24.3188 49.5 21.4201ZM39.765 18.9451L39.6206 16.5826C38.94 16.4026 38.2388 16.2676 37.5169 16.1326L37.6613 18.4501C38.3625 18.5851 39.0844 18.7426 39.765 18.9451ZM28.4831 16.1326C27.7613 16.2676 27.06 16.4026 26.3794 16.5826L26.235 18.9451C26.9156 18.7426 27.6375 18.5851 28.3387 18.4501L28.4831 16.1326ZM26.3794 16.5826L26.235 18.9451C26.9156 18.7426 27.6375 18.5851 28.3387 18.4501L28.4831 16.1326C27.7613 16.2676 27.06 16.4026 26.3794 16.5826ZM39.6206 16.5826C38.94 16.4026 38.2388 16.2676 37.5169 16.1326L37.6613 18.4501C38.3625 18.5851 39.0844 18.7426 39.765 18.9451L39.6206 16.5826Z" fill="black"/>
<path d="M17.5312 30.375V19.125C17.5312 17.9315 17.9658 16.7869 18.7394 15.943C19.513 15.0991 20.5622 14.625 21.6562 14.625H44.3438C45.4378 14.625 46.487 15.0991 47.2606 15.943C48.0342 16.7869 48.4688 17.9315 48.4688 19.125V30.375" fill="#FFDD56"/>
<path d="M29.205 13.5C28.8107 14.1786 28.5703 14.9499 28.5037 15.75H21.6562C20.8357 15.75 20.0488 16.1056 19.4686 16.7385C18.8884 17.3714 18.5625 18.2299 18.5625 19.125V30.375C18.5625 30.6734 18.4539 30.9595 18.2605 31.1705C18.0671 31.3815 17.8048 31.5 17.5312 31.5C17.2577 31.5 16.9954 31.3815 16.802 31.1705C16.6086 30.9595 16.5 30.6734 16.5 30.375V19.125C16.5 17.6332 17.0432 16.2024 18.0102 15.1475C18.9772 14.0926 20.2887 13.5 21.6562 13.5H29.205ZM49.5 19.125V30.375C49.5 30.6734 49.3913 30.9595 49.198 31.1705C49.0046 31.3815 48.7423 31.5 48.4688 31.5C48.1952 31.5 47.9329 31.3815 47.7395 31.1705C47.5461 30.9595 47.4375 30.6734 47.4375 30.375V19.125C47.4375 18.2299 47.1116 17.3714 46.5314 16.7385C45.9512 16.1056 45.1643 15.75 44.3438 15.75H37.4963C37.4297 14.9499 37.1893 14.1786 36.795 13.5H44.3438C45.0209 13.5 45.6914 13.6455 46.317 13.9282C46.9425 14.2109 47.511 14.6252 47.9898 15.1475C48.4686 15.6699 48.8484 16.2899 49.1075 16.9724C49.3666 17.6549 49.5 18.3863 49.5 19.125Z" fill="black"/>
<path d="M25.7812 41.625L27.4766 15.7365C27.5762 14.2126 28.2014 12.7865 29.2263 11.7453C30.2511 10.7041 31.5995 10.1251 33 10.125C34.4005 10.1251 35.7489 10.7041 36.7737 11.7453C37.7986 12.7865 38.4238 14.2126 38.5234 15.7365L40.2188 41.625" fill="#FFDD56"/>
<path d="M41.25 41.5349C41.2613 41.6827 41.2456 41.8315 41.204 41.9728C41.1624 42.114 41.0955 42.2448 41.0073 42.3577C40.9192 42.4707 40.8114 42.5634 40.6902 42.6308C40.569 42.6981 40.4368 42.7386 40.3013 42.7499H40.2188C39.959 42.7508 39.7084 42.6447 39.5172 42.4528C39.326 42.261 39.2083 41.9974 39.1875 41.7149L37.6613 18.4499L37.5169 16.1324L37.4963 15.8174V15.7499C37.4297 14.9498 37.1893 14.1785 36.795 13.4999C36.3846 12.8094 35.8224 12.2419 35.1595 11.849C34.4967 11.4561 33.7544 11.2503 33 11.2503C32.2457 11.2503 31.5033 11.4561 30.8405 11.849C30.1776 12.2419 29.6154 12.8094 29.205 13.4999C28.8107 14.1785 28.5703 14.9498 28.5038 15.7499V15.8174L28.4831 16.1324L28.3388 18.4499L26.8125 41.7149C26.8021 41.8628 26.765 42.007 26.7033 42.1392C26.6416 42.2714 26.5565 42.389 26.453 42.4852C26.3495 42.5814 26.2296 42.6543 26.1001 42.6997C25.9707 42.7452 25.8343 42.7622 25.6988 42.7499C25.5632 42.7386 25.431 42.6981 25.3098 42.6308C25.1886 42.5634 25.0809 42.4707 24.9927 42.3577C24.9045 42.2448 24.8377 42.114 24.796 41.9728C24.7544 41.8315 24.7387 41.6827 24.75 41.5349L26.235 18.9449L26.3794 16.5824L26.4413 15.7499V15.6599C26.4815 14.915 26.6421 14.1838 26.9156 13.4999C27.4011 12.1722 28.2403 11.0339 29.3249 10.2319C30.4096 9.43001 31.6897 9.00134 33 9.00134C34.3103 9.00134 35.5904 9.43001 36.6751 10.2319C37.7597 11.0339 38.599 12.1722 39.0844 13.4999C39.3579 14.1838 39.5185 14.915 39.5588 15.6599V15.7499L39.6206 16.5824L39.765 18.9449L41.25 41.5349Z" fill="black"/>
</g>
<defs>
<clipPath id="clip0">
<rect width="66" height="72" fill="white"/>
</clipPath>
</defs>
</svg>
