<svg width="790" height="659" viewBox="0 0 790 659" fill="none" xmlns="http://www.w3.org/2000/svg">
<g clip-path="url(#clip0)">
<path opacity="0.1" d="M777.052 293.449C776.91 294.384 776.768 295.319 776.612 296.254C771.554 328.093 763.297 358.789 751.02 386.972C750.617 387.907 750.207 388.842 749.789 389.777C741.91 407.547 732.235 424.247 720.953 439.548C714.836 447.804 708.168 455.643 700.239 461.303C689.125 469.233 676.132 472.455 663.362 475.093C650.093 477.84 636.652 480.102 623.241 482.607C618.487 483.475 613.763 484.385 609.069 485.336C596.112 487.958 583.253 490.988 570.7 495.003C555.178 500.012 540.118 506.465 525.946 515.606C524.812 516.33 523.691 517.073 522.582 517.835C521.471 518.587 520.344 519.355 519.263 520.139C518.181 520.924 517.092 521.7 516.018 522.493L514.362 523.746C513.818 524.146 513.281 524.58 512.744 524.981C511.147 526.2 509.574 527.485 508 528.721L507.94 528.771C506.903 529.606 505.874 530.441 504.845 531.275C499.034 536.092 493.35 541.134 487.689 546.193L484.116 549.391C482.271 551.027 480.426 552.66 478.582 554.291C477.5 555.251 476.404 556.203 475.315 557.154C474.524 557.847 473.741 558.54 472.935 559.225C468.9 562.706 464.812 566.112 460.643 569.367C459.651 570.144 458.644 570.92 457.659 571.68C449.313 578.069 440.435 583.543 431.15 588.025L431.031 588.084C426.457 590.265 421.751 592.081 416.948 593.518C414.196 594.353 411.444 595.012 408.654 595.53C401.222 596.969 393.637 597.115 386.165 595.964C371.479 593.635 357.717 585.947 343.067 583.375C312.844 578.124 283.493 595.063 255.052 608.361C248.09 611.622 241.051 614.683 233.935 617.544C229.221 619.447 224.485 621.259 219.726 622.978C190.734 633.473 160.86 640.626 130.569 644.324C118.202 645.835 105.306 646.553 92.7151 645.468C87.9605 645.077 83.2291 644.388 78.5431 643.406C62.6033 640.067 47.7227 632.979 35.7362 620.032C25.7785 609.438 18.7521 595.589 13.3966 581.138C11.2435 575.333 9.34641 569.395 7.70544 563.324C5.12614 553.807 3.18883 544.088 1.90983 534.247C1.61893 532.027 1.35787 529.798 1.16394 527.569C0.776073 523.746 0.487658 519.906 0.298697 516.049C-0.745645 495.551 1.04319 474.995 5.60201 455.108C10.6816 433.078 19.1549 411.982 22.8844 389.743C23.041 388.808 23.1828 387.873 23.3245 386.938C23.8217 383.599 24.1997 380.199 24.4582 376.737C26.3379 349.539 19.0654 322.918 13.322 296.254C13.1206 295.319 12.9192 294.384 12.7253 293.449C12.1037 290.494 11.5145 287.536 10.9575 284.575C5.63931 256.376 4.18481 226.198 8.90633 198.056C9.05551 197.121 9.22707 196.178 9.39862 195.252C12.5836 177.821 18.2076 161.242 26.8227 146.474C35.6616 131.314 47.2677 118.7 59.6421 107.614C65.6839 102.216 71.932 97.1652 78.3865 92.4625C83.0259 89.0899 87.7499 85.8982 92.5585 82.8874C131.412 58.6781 175.741 46.849 219.57 49.4953C221.892 49.6289 224.209 49.807 226.521 50.0296C228.948 50.2633 231.367 50.5416 233.779 50.8644C261.996 54.5125 289.452 63.5534 316.745 73.4458C325.889 76.785 335.012 80.1242 344.134 83.4634C348.192 84.9437 352.247 86.4047 356.3 87.8461C376.178 94.8667 396.384 101.203 416.777 105.978C421.506 107.091 426.23 108.107 430.949 109.025C447.355 112.314 463.957 114.228 480.618 114.752C487.082 114.93 493.547 114.855 500.011 114.526C503.278 114.359 506.548 114.114 509.82 113.792C543.616 110.553 576.204 99.6919 608.927 89.4906C613.656 88.013 618.392 86.5438 623.099 85.1246C629.32 83.2547 635.548 81.4432 641.798 79.7736C680.719 69.3135 715.403 75.3241 751.587 96.8953C759.792 101.796 767.996 107.706 773.068 116.855C778.141 126.005 779.371 137.333 780.311 148.236C781.639 163.746 782.549 179.474 782.84 195.268C782.84 196.203 782.84 197.138 782.892 198.073C783.548 230.054 781.81 262.278 777.052 293.449Z" fill="#FFDA49"/>
<path opacity="0.1" d="M518.904 386.972H516.361V388.216V389.777H519.24L518.904 386.972ZM490.076 386.972C490.072 386.994 490.072 387.017 490.076 387.039L489.852 389.359V389.568V389.777H511.93V389.61L513.504 386.972H490.076ZM431.038 386.972V296.254H456.398C456.13 296.004 455.854 295.753 455.57 295.519L455.197 295.202C455.041 295.06 454.884 294.927 454.72 294.802C454.556 294.676 454.168 294.359 453.877 294.142C453.586 293.925 453.407 293.783 453.131 293.608L452.96 293.483H452.922H431.038V288.515L430.449 288.833L429.822 289.225H429.777L429.643 289.317L429.255 289.601C429.121 289.693 428.987 289.784 428.86 289.885C428.472 290.177 428.114 290.494 427.704 290.82L427.331 291.153C427.077 291.37 426.839 291.596 426.585 291.821C425.593 292.731 424.616 293.683 423.601 294.559C423.348 294.785 423.094 295.002 422.855 295.211C422.313 295.655 421.751 296.067 421.17 296.446C420.929 296.614 420.68 296.767 420.424 296.905L420.006 297.122L419.626 297.306C418.73 297.729 417.801 298.059 416.851 298.291V386.972H378.81C378.81 387.072 378.863 387.164 378.885 387.264C379.094 388.099 379.303 388.934 379.504 389.768H416.858V487.014H417.44L418.104 487.064L419.312 487.165L421.267 487.382L422.147 487.499L423.117 487.632H423.258C423.818 487.716 424.385 487.816 424.959 487.916L425.324 487.983L426.145 488.133L427.323 488.367L430.15 488.2L430.538 488.292C430.695 488.292 430.851 488.358 431.016 488.4V389.777H489.8V389.568V389.359L490.023 387.039C490.02 387.017 490.02 386.994 490.023 386.972H431.038ZM518.904 386.972H516.361V388.216V389.777H519.24L518.904 386.972ZM488.487 386.972L488.233 389.777H512.795L514.466 386.972H488.487ZM431.053 386.972V296.254H456.413C456.145 296.004 455.869 295.753 455.585 295.519L455.212 295.202C455.056 295.06 454.899 294.927 454.735 294.802C454.571 294.676 454.183 294.359 453.892 294.142C453.601 293.925 453.422 293.783 453.146 293.608L452.975 293.483H452.922H431.038V288.515L430.449 288.833L429.822 289.225H429.777L429.643 289.317L429.255 289.601C429.121 289.693 428.987 289.784 428.86 289.885C428.472 290.177 428.114 290.494 427.704 290.82L427.331 291.153C427.077 291.37 426.839 291.596 426.585 291.821C425.593 292.731 424.616 293.683 423.601 294.559C423.348 294.785 423.094 295.002 422.855 295.211C422.313 295.655 421.751 296.067 421.17 296.446C420.929 296.614 420.68 296.767 420.424 296.905L420.006 297.122L419.626 297.306C418.73 297.729 417.801 298.059 416.851 298.291V386.972H378.81C378.81 387.072 378.863 387.164 378.885 387.264C379.094 388.099 379.31 388.934 379.511 389.768H416.858V487.006L417.44 487.048L418.104 487.098L419.312 487.198L421.267 487.415L422.147 487.532L423.117 487.666H423.258C423.818 487.749 424.385 487.849 424.959 487.949L425.324 488.016L426.145 488.166L427.323 488.4L430.15 488.233L430.538 488.325C430.695 488.325 430.851 488.392 431.016 488.434V389.777H488.233L488.502 386.972H431.053ZM623.24 198.056H783.033C783.033 197.121 783.033 196.187 782.981 195.252H623.24V85.1079C618.496 86.5271 613.76 87.9963 609.068 89.4739V195.252H435.275L434.835 194.717L435.498 193.882L500.138 114.485C493.673 114.818 487.209 114.894 480.744 114.71L431.038 175.734V109.008C426.294 108.09 421.57 107.074 416.866 105.961V172.662L344.193 83.4467C335.071 80.1075 325.949 76.7098 316.804 73.4291L415.583 194.717L415.143 195.252H233.838V50.831C231.421 50.5249 229.002 50.2467 226.581 49.9962C224.268 49.768 221.951 49.5899 219.629 49.4619V195.252H92.6178V82.8874C87.7993 85.8926 83.0753 89.0844 78.4458 92.4625V195.252H9.36845C9.1969 196.178 9.02534 197.121 8.87616 198.056H78.3861V293.449H12.725C12.9189 294.384 13.1203 295.319 13.3217 296.254H78.416V386.972H23.3018C23.1601 387.907 23.0183 388.842 22.8617 389.777H78.416V643.431C83.1019 644.413 87.8333 645.102 92.588 645.493V389.777H219.629V623.003C224.393 621.273 229.129 619.461 233.838 617.569V389.777H416.836V593.552C421.639 592.115 426.345 590.299 430.919 588.117L431.038 588.059V389.777H609.023V485.336C613.742 484.385 618.466 483.475 623.195 482.607V389.777H749.752C750.169 388.842 750.579 387.907 750.982 386.972H623.24V296.254H776.619C776.775 295.319 776.917 294.384 777.059 293.449H623.24V198.056ZM92.6253 198.056H219.629V293.449H92.6178L92.6253 198.056ZM92.6253 386.972V296.254H219.629V386.972H92.6253ZM233.846 198.056H416.836V293.449H233.838L233.846 198.056ZM233.846 386.972V296.254H416.836V386.972H233.846ZM609.031 386.972H431.038V296.254H609.023L609.031 386.972ZM609.031 293.474H431.038V200.611L433.537 198.056H609.023L609.031 293.474ZM490.083 386.972C490.079 386.994 490.079 387.017 490.083 387.039L489.859 389.359V389.568V389.777H511.938V389.61L513.512 386.972H490.083ZM518.912 386.972H516.368V388.216V389.777H519.247L518.912 386.972ZM431.045 386.972V296.254H456.406C456.137 296.004 455.861 295.753 455.578 295.519L455.205 295.202C455.048 295.06 454.892 294.927 454.728 294.802C454.563 294.676 454.176 294.359 453.885 294.142C453.594 293.925 453.415 293.783 453.139 293.608L452.967 293.483H452.93H431.038V288.515L430.449 288.833L429.822 289.225H429.777L429.643 289.317L429.255 289.601C429.121 289.693 428.987 289.784 428.86 289.885C428.472 290.177 428.114 290.494 427.704 290.82L427.331 291.153C427.077 291.37 426.839 291.596 426.585 291.821C425.593 292.731 424.616 293.683 423.601 294.559C423.348 294.785 423.094 295.002 422.855 295.211C422.313 295.655 421.751 296.067 421.17 296.446C420.929 296.614 420.68 296.767 420.424 296.905L420.006 297.122L419.626 297.306C418.73 297.729 417.801 298.059 416.851 298.291V386.972H378.81C378.81 387.072 378.863 387.164 378.885 387.264C379.094 388.099 379.303 388.934 379.504 389.768H416.858V487.014H417.44L418.104 487.064L419.312 487.165L421.267 487.382L422.147 487.499L423.117 487.632H423.258C423.818 487.716 424.385 487.816 424.959 487.916L425.324 487.983L426.145 488.133L427.323 488.367L430.15 488.2L430.538 488.292C430.695 488.292 430.851 488.358 431.016 488.4V389.777H489.8V389.568V389.359L490.023 387.039C490.02 387.017 490.02 386.994 490.023 386.972H431.045Z" fill="#FFF0CA"/>
<path opacity="0.1" d="M153.684 132.374H154.818C154.43 132.123 154.104 131.768 153.868 131.341C153.633 130.915 153.495 130.429 153.468 129.928C153.468 127.992 155.586 126.414 158.175 126.414H191.106C193.694 126.414 195.812 127.992 195.812 129.928C195.812 131.857 193.694 133.443 191.106 133.443H190.009C190.395 133.696 190.72 134.051 190.954 134.478C191.188 134.904 191.325 135.389 191.352 135.889C191.352 137.558 189.815 138.928 187.757 139.303H197.237C199.818 139.303 201.936 140.881 201.936 142.818C201.936 144.754 199.818 146.324 197.237 146.324H164.269C161.688 146.324 159.569 144.746 159.569 142.818C159.569 141.148 161.106 139.779 163.165 139.403H153.684C151.103 139.403 148.985 137.826 148.985 135.889C148.985 133.952 151.089 132.374 153.684 132.374Z" fill="#6C63FF"/>
<path opacity="0.1" d="M510.61 165.825H511.714C511.325 165.572 510.999 165.216 510.763 164.788C510.528 164.359 510.39 163.873 510.364 163.371C510.364 161.442 512.482 159.864 515.07 159.864H548.002C550.59 159.864 552.708 161.442 552.708 163.371C552.708 165.307 550.59 166.885 548.002 166.885H546.905C547.292 167.139 547.617 167.496 547.851 167.924C548.085 168.352 548.221 168.838 548.248 169.339C548.248 171.009 546.711 172.37 544.653 172.745H554.133C556.714 172.745 558.832 174.331 558.832 176.26C558.832 178.188 556.714 179.774 554.133 179.774H521.209C518.628 179.774 516.51 178.197 516.51 176.26C516.51 174.59 518.047 173.221 520.105 172.854H510.61C508.029 172.854 505.911 171.268 505.911 169.339C505.911 167.411 508.044 165.825 510.61 165.825Z" fill="#6C63FF"/>
<path opacity="0.1" d="M103.165 308.968H104.269C103.882 308.714 103.557 308.357 103.323 307.929C103.089 307.501 102.953 307.015 102.926 306.514C102.926 304.585 105.037 302.999 107.625 302.999H140.556C143.145 302.999 145.263 304.585 145.263 306.514C145.263 308.45 143.145 310.028 140.556 310.028H139.46C139.847 310.282 140.172 310.639 140.406 311.067C140.64 311.496 140.776 311.982 140.803 312.483C140.803 314.152 139.266 315.513 137.207 315.889H146.688C149.276 315.889 151.387 317.466 151.387 319.403C151.387 321.34 149.276 322.918 146.688 322.918H113.749C111.168 322.918 109.05 321.331 109.05 319.403C109.05 317.733 110.594 316.364 112.645 315.989H103.165C100.584 315.989 98.4656 314.411 98.4656 312.483C98.4656 310.554 100.584 308.968 103.165 308.968Z" fill="#6C63FF"/>
<path d="M484.026 549.424C482.181 551.06 480.337 552.694 478.492 554.324C477.41 555.284 476.314 556.236 475.225 557.188C474.434 557.881 473.651 558.573 472.845 559.258C468.81 562.739 464.723 566.145 460.553 569.401C459.561 570.177 458.554 570.954 457.569 571.713C449.223 578.103 440.346 583.577 431.06 588.059L430.941 588.117V549.424H484.026Z" fill="#65617D"/>
<path d="M567.03 397.357L567.865 368.514C567.365 368.08 566.858 367.68 566.373 367.279C566.579 358.68 566.14 350.076 565.06 341.559C561.689 312.716 539.797 312.09 533.621 318.042C532.802 318.833 531.91 319.521 530.958 320.096C531.517 315.98 532.211 311.857 532.711 307.783C535.411 285.811 531.219 261.092 515.988 246.892C509.611 240.957 501.816 237.309 494.812 232.342C482.266 223.484 472.353 210.403 459.665 201.78C446.978 193.156 429.158 189.926 418.089 201.012C413.8 205.303 411.033 211.255 406.632 215.395C398.427 223.109 385.635 223.618 378.475 232.233C378.117 232.667 377.774 233.11 377.445 233.577C371.478 242.142 373.112 254.289 375.014 264.916C377.304 277.705 376.356 287.956 386.157 291.629C386.195 292.139 386.225 292.648 386.277 293.149C387.074 300.994 389.394 308.55 393.074 315.287C396.753 322.024 401.704 327.779 407.58 332.151L405.991 332.785C401.754 334.455 397.943 336.074 395.503 337.184C386.553 341.267 367.711 346.584 367.711 346.584C367.711 346.584 367.264 352.595 367.346 361.46C361.065 369.099 350.586 382.522 347.505 390.478C343.03 402.082 317.744 435.315 311.008 440.332C304.273 445.349 296.971 451.302 296.971 451.302C296.971 451.302 286.304 457.888 281.255 458.514C277.756 458.948 266.934 456.628 266.934 456.628C266.934 456.628 223.709 397.357 226.513 442.837C229.318 488.317 263.846 489.861 263.846 489.861L298.656 489.235C298.656 489.235 317.468 492.057 325.889 484.226C333.08 477.548 370.344 440.908 382.316 424.287C382.592 424.63 382.868 424.964 383.159 425.289C383.159 425.289 387.925 418.394 388.492 425.289C389.059 432.185 385.397 435.307 387.366 437.811C389.335 440.316 395.227 449.098 395.503 452.545C395.779 455.993 387.649 470.076 401.396 480.762C401.612 480.929 401.844 481.087 402.097 481.246C404.551 487.499 412.353 493.618 412.353 493.618L454.459 492.992L533.904 499.887C533.904 499.887 536.269 497.558 539.469 493.751C543.743 498.142 549.673 501.907 556.356 499.595C556.356 499.595 565.903 486.747 566.187 478.282C566.187 478.282 560.011 460.409 557.236 455.083C554.461 449.757 559.205 438.154 559.205 438.154C559.205 438.154 562.569 426.867 564.538 426.867C566.507 426.867 565.098 419.354 565.098 419.354C564.353 418.126 563.887 416.713 563.741 415.238C563.594 413.763 563.77 412.27 564.255 410.889C565.903 406.139 567.03 397.357 567.03 397.357Z" fill="url(#paint0_linear)"/>
<path d="M519.404 390.862L516.421 394.769L504.367 410.48L488.621 411.548L463.417 413.285C463.417 413.285 429.434 367.454 435.819 357.478C438.139 353.88 438.519 349.13 438.057 344.647C437.997 344.03 437.915 343.412 437.818 342.803C437.054 338.059 435.719 333.454 433.85 329.112L434.685 328.686L435.222 328.411L464.939 313.234L472.293 309.477C472.66 311.746 473.339 313.937 474.307 315.972C474.449 316.289 474.606 316.607 474.77 316.907C484.906 335.69 517.413 323.811 517.413 323.811L519.404 390.862Z" fill="#EE8E9E"/>
<path d="M563.345 367.412C563.121 378.782 561.465 383.691 561.465 383.691L519.404 390.862L517.83 378.641L511.602 330.381L517.45 323.836C519.786 324.4 522.207 324.356 524.526 323.707C526.844 323.059 528.999 321.824 530.824 320.096C536.948 314.169 558.675 314.795 562.017 343.47C562.999 351.402 563.443 359.406 563.345 367.412Z" fill="#EE8E9E"/>
<path d="M553.387 500.588C553.387 500.588 562.852 487.807 563.136 479.393L553.663 461.62L545.309 451.602L529.705 485.311C529.705 485.311 540.013 505.263 553.387 500.588Z" fill="#DFE5EE"/>
<path opacity="0.1" d="M553.387 500.588C553.387 500.588 562.852 487.807 563.136 479.393L553.663 461.62L545.309 451.602L529.705 485.311C529.705 485.311 540.013 505.263 553.387 500.588Z" fill="black"/>
<path d="M475.225 557.188C474.434 557.881 473.651 558.574 472.845 559.258C468.81 562.739 464.723 566.145 460.553 569.401C459.561 570.177 458.554 570.954 457.569 571.713H416.836H233.838H219.629L149.231 568.892L92.6178 568.357L78.4458 567.523L7.73494 563.349C5.14446 553.825 3.19717 544.097 1.9095 534.247C1.6186 532.027 1.35754 529.798 1.1636 527.569L78.416 532.361L92.588 533.254L219.599 541.185L233.808 542.07L416.806 553.506L430.889 554.391H431.008L475.225 557.188Z" fill="#D48A9B"/>
<path d="M570.655 495.003C555.133 500.012 540.073 506.465 525.901 515.606C524.775 516.333 523.663 517.076 522.537 517.835C521.411 518.595 520.299 519.355 519.218 520.139C518.136 520.924 517.047 521.7 515.973 522.493L514.317 523.746L512.698 524.981C511.102 526.208 509.528 527.486 507.955 528.721L507.895 528.771C506.858 529.606 505.829 530.441 504.799 531.276C498.989 536.092 493.305 541.135 487.644 546.193C486.45 547.262 485.255 548.328 484.056 549.391L478.537 554.291C477.455 555.251 476.359 556.203 475.27 557.154C474.479 557.847 473.696 558.54 472.89 559.225L431.12 556.996H431.001L416.918 556.261L233.838 546.552L219.629 545.793L92.6178 539.039L78.4458 538.28L1.90948 534.247C1.61858 532.027 1.35751 529.798 1.16358 527.569C0.775716 523.746 0.4873 519.906 0.29834 516.049L78.4383 485.161L92.6103 479.543L105.484 474.451L128.943 475.82L183.162 478.934L219.651 481.079L233.861 481.914L242.938 482.448L245.109 482.582L321.503 487.048L322.309 487.106L356.396 489.093H356.784H357.008L360.417 489.285L372.038 489.97L386.568 490.804L391.356 491.088L392.259 491.147L399.031 491.539L400.963 491.648L407.43 492.032L410.004 492.19H410.086H410.623L416.672 492.549L426.04 493.1H426.085L428.994 493.267H429.307L431.045 493.376L435.312 493.626L439.041 493.843H439.079L443.263 494.085H443.33L446.5 494.277L448.932 494.419L457.562 494.928L459.113 495.02H459.65L460.396 495.07L462.925 495.22L464.059 495.287L472.86 495.796H473.666L486.659 495.671H486.749L536.149 495.22H537.097H538.096H541.035L556.938 495.079H559.309L570.655 495.003Z" fill="#EFC6CD"/>
<path d="M237.247 496.147L241.842 523.504L366.764 521.4C366.764 521.4 376.162 524.438 375.954 516.024C375.954 516.024 394.966 495.913 491.269 519.296L454.295 486.797L353.226 492.875L236.031 489.369L237.247 496.147Z" fill="#FFD037"/>
<path d="M239.544 489.602L243.93 519.296C243.93 519.296 351.339 515.79 368.226 519.062L355.464 491.94C355.464 491.94 290.519 485.161 239.544 489.602Z" fill="white"/>
<path opacity="0.1" d="M239.544 489.602L243.93 519.296C243.93 519.296 351.339 515.79 368.226 519.062L355.464 491.94C355.464 491.94 290.519 485.161 239.544 489.602Z" fill="black"/>
<path d="M241.148 489.494L245.474 517.109C245.474 517.109 351.518 513.853 368.226 516.892L355.643 491.673C355.643 491.673 291.481 485.362 241.148 489.494Z" fill="white"/>
<path opacity="0.1" d="M243.095 490.345L247.309 516.174C247.309 516.174 351.026 513.127 367.398 515.974L355.091 492.374C355.091 492.374 292.331 486.447 243.095 490.345Z" fill="black"/>
<path d="M243.93 489.402L248.167 515.281C248.167 515.281 351.884 512.234 368.256 515.08L355.919 491.456C355.919 491.456 293.167 485.537 243.93 489.402Z" fill="white"/>
<path d="M170.549 419.17C170.549 419.17 175.979 427.109 168.05 439.105C160.121 451.101 153.572 461.219 156.22 468.699C156.22 468.699 168.155 446.426 177.926 446.159C187.697 445.892 181.267 432.56 170.549 419.17Z" fill="#FFD037"/>
<path opacity="0.1" d="M170.549 419.17C171.026 419.94 171.4 420.784 171.66 421.675C181.163 434.197 186.228 445.884 177.09 446.134C168.58 446.401 158.376 463.431 155.929 467.739C156.014 468.062 156.111 468.387 156.22 468.716C156.22 468.716 168.155 446.443 177.926 446.176C187.697 445.909 181.267 432.56 170.549 419.17Z" fill="black"/>
<path d="M180.641 429.296C180.641 432.084 180.357 434.355 180.014 434.355C179.671 434.355 179.388 432.084 179.388 429.296C179.388 426.508 179.738 427.81 180.081 427.81C180.425 427.81 180.641 426.5 180.641 429.296Z" fill="#FFD037"/>
<path d="M184.102 432.627C181.909 433.971 179.999 434.781 179.835 434.439C179.671 434.096 181.327 432.769 183.505 431.4C185.683 430.031 184.833 431.033 184.997 431.4C185.161 431.767 186.295 431.291 184.102 432.627Z" fill="#FFD037"/>
<path d="M141.884 419.17C141.884 419.17 136.454 427.109 144.39 439.105C152.327 451.101 158.861 461.219 156.22 468.699C156.22 468.699 144.249 446.426 134.507 446.159C124.766 445.892 131.166 432.56 141.884 419.17Z" fill="#FFD037"/>
<path opacity="0.1" d="M141.884 419.17C141.411 419.943 141.037 420.786 140.773 421.675C131.27 434.197 126.205 445.884 135.343 446.134C143.853 446.401 154.065 463.431 156.511 467.739C156.432 468.062 156.335 468.387 156.22 468.716C156.22 468.716 144.249 446.443 134.507 446.176C124.766 445.909 131.166 432.56 141.884 419.17Z" fill="black"/>
<path d="M131.792 429.296C131.792 432.084 132.076 434.355 132.419 434.355C132.762 434.355 133.045 432.084 133.045 429.296C133.045 426.508 132.695 427.81 132.352 427.81C132.009 427.81 131.792 426.5 131.792 429.296Z" fill="#FFD037"/>
<path d="M128.331 432.627C130.524 433.971 132.441 434.781 132.605 434.439C132.769 434.096 131.113 432.769 128.935 431.4C126.757 430.031 127.608 431.033 127.444 431.4C127.28 431.767 126.138 431.291 128.331 432.627Z" fill="#FFD037"/>
<path d="M185.4 457.988L185.131 460.493L184.751 463.991L184.594 465.452L184.214 468.958L184.05 470.419L183.662 473.925L179.321 513.761C178.933 517.318 173.741 520.089 167.476 520.089H144.935C138.669 520.089 133.485 517.318 133.098 513.761L128.749 473.925L128.369 470.419L128.212 468.958L127.824 465.452L127.667 463.991L127.287 460.493L127.011 457.988C126.795 455.977 129.599 454.282 133.15 454.282H179.291C182.834 454.282 185.646 455.977 185.4 457.988Z" fill="#FFDA49"/>
<path d="M185.154 460.468L184.773 463.974H127.667L127.287 460.468H185.154Z" fill="#9D9CB5"/>
<path d="M184.617 465.435L184.236 468.941H128.212L127.824 465.435H184.617Z" fill="#9D9CB5"/>
<path d="M184.072 470.402L183.692 473.9H128.749L128.369 470.402H184.072Z" fill="#9D9CB5"/>
<path d="M254.238 454.766C254.238 454.766 239.753 439.18 240.313 459.441C240.872 479.702 254.238 454.766 254.238 454.766Z" fill="#EE8E9E"/>
<path d="M384.315 419.229C383.994 420.798 382.435 423.403 380.004 426.667C367.443 443.596 331.707 478.783 324.703 485.311C316.349 493.108 297.687 490.32 297.687 490.32L263.152 490.946C263.152 490.946 228.893 489.385 226.103 444.197C223.314 399.01 266.21 457.913 266.21 457.913C266.21 457.913 276.951 460.217 280.419 459.783C285.432 459.165 296.016 452.621 296.016 452.621C296.016 452.621 303.259 446.693 309.942 441.71C316.625 436.726 341.695 403.676 346.155 392.139C348.982 384.818 358.089 372.847 364.377 365.083C367.987 360.617 370.665 357.57 370.665 357.57C370.665 357.57 386.262 409.562 384.315 419.229Z" fill="#EE8E9E"/>
<path opacity="0.1" d="M384.315 419.229C383.994 420.798 382.435 423.403 380.004 426.667C367.324 412.216 364.676 383.382 364.377 365.05C367.987 360.584 370.665 357.537 370.665 357.537C370.665 357.537 386.262 409.562 384.315 419.229Z" fill="black"/>
<path opacity="0.1" d="M516.413 394.769L504.367 410.48L488.621 411.548L463.417 413.285C463.417 413.285 429.434 367.454 435.819 357.478C438.139 353.88 438.519 349.13 438.057 344.647C437.997 344.03 437.915 343.412 437.818 342.803C437.054 338.059 435.719 333.454 433.85 329.112L434.685 328.686L435.222 328.411C436.549 332.546 437.464 336.832 437.952 341.191C438.034 341.784 438.109 342.402 438.184 343.036C438.445 345.29 438.683 347.795 438.93 350.549C440.869 375.777 455.048 385.269 461.448 388.291C463.506 389.262 465.517 390.352 467.475 391.555C473.632 395.355 480.732 396.792 487.689 395.645C503.487 393.325 516.368 380.477 516.368 380.477L516.435 393.124L516.413 394.769Z" fill="black"/>
<path d="M516.898 492.8C516.898 492.8 413.286 492.482 399.628 481.889C385.971 471.295 394.064 457.262 393.78 453.831C393.497 450.4 387.657 441.676 385.71 439.172C383.763 436.668 387.381 433.562 386.821 426.708C386.262 419.855 381.533 426.708 381.533 426.708C362.028 404.569 366.205 348.462 366.205 348.462C366.205 348.462 384.852 343.17 393.803 339.104C396.227 338.002 400.001 336.433 404.245 334.738L405.819 334.104C416.761 329.721 429.77 324.771 429.77 324.771C429.77 324.771 432.269 322.792 434.782 328.711C435.931 331.433 437.087 335.815 438.012 342.819C438.094 343.412 438.169 344.03 438.243 344.664C438.504 346.918 438.743 349.423 438.989 352.177C440.928 377.405 455.108 386.897 461.508 389.919C463.565 390.89 465.577 391.98 467.535 393.183C473.692 396.983 480.792 398.42 487.748 397.273C503.546 394.953 516.428 382.105 516.428 382.105L516.495 394.752L516.689 432.752L516.898 492.8Z" fill="#DFE5EE"/>
<path d="M512.438 443.546L510.767 455.392C510.767 455.392 469.541 466.921 453.392 470.352C437.244 473.783 402.418 469.417 399.912 476.897C397.406 484.376 410.496 494.67 410.496 494.67L452.266 494.043L531.092 500.906C531.092 500.906 561.174 471.287 551.425 450.709C541.677 430.131 512.438 443.546 512.438 443.546Z" fill="#EE8E9E"/>
<path opacity="0.1" d="M427.488 350.024C427.488 350.024 408.542 367.479 412.167 375.902C415.792 384.325 427.488 350.024 427.488 350.024Z" fill="black"/>
<path opacity="0.1" d="M404.089 381.504C404.089 381.504 384.867 418.602 385.986 421.407C387.105 424.212 392.393 434.188 392.11 426.708C391.826 419.229 404.089 381.504 404.089 381.504Z" fill="black"/>
<path opacity="0.1" d="M411.891 388.057C411.891 388.057 407.415 411.123 402.977 420.79C398.539 430.457 411.891 388.057 411.891 388.057Z" fill="black"/>
<path opacity="0.1" d="M474.807 316.932C471.124 324.491 465.877 330.953 459.505 335.777C453.134 340.602 445.823 343.649 438.184 344.664H438.094C426.077 346.243 413.97 342.696 404.186 334.73C415.374 330.205 429.71 324.763 429.71 324.763C429.71 324.763 432.209 322.784 434.723 328.703L472.331 309.502C472.753 312.125 473.592 314.641 474.807 316.932Z" fill="black"/>
<path d="M480.685 289.233C480.699 298.622 478.513 307.85 474.345 315.997C472.354 319.882 469.941 323.477 467.162 326.699C459.408 335.735 449.075 341.452 437.952 342.861H437.855C436.078 343.089 434.289 343.203 432.5 343.203C420.661 343.204 409.235 338.326 400.405 329.5C391.574 320.674 385.955 308.519 384.621 295.353C384.413 293.332 384.311 291.3 384.315 289.267C384.315 274.964 389.392 261.247 398.428 251.134C407.464 241.02 419.721 235.339 432.5 235.339C445.279 235.339 457.535 241.02 466.572 251.134C475.608 261.247 480.685 274.964 480.685 289.267V289.233Z" fill="#EE8E9E"/>
<path opacity="0.1" d="M511.886 391.279L516.361 383.766C516.361 383.766 540.871 351.034 564.844 371.92L564.009 400.604C564.009 400.604 562.89 409.328 561.219 413.961C560.739 415.336 560.564 416.821 560.71 418.288C560.855 419.755 561.317 421.16 562.054 422.384C562.054 422.384 563.449 429.897 561.502 429.897C559.556 429.897 556.207 441.117 556.207 441.117C556.207 441.117 551.47 452.654 554.26 457.955C557.05 463.256 563.173 481.021 563.173 481.021C563.173 481.021 553.424 474.476 550.635 463.565C550.635 463.565 526.96 442.987 508.574 456.052L511.886 391.279Z" fill="black"/>
<path opacity="0.1" d="M563.345 367.412C563.121 378.782 561.465 383.691 561.465 383.691L519.404 390.862L517.83 378.641C523.335 372.213 543.355 351.777 563.345 367.412Z" fill="black"/>
<path d="M511.886 389.61L516.361 382.097C516.361 382.097 540.871 349.364 564.844 370.251L564.009 398.935C564.009 398.935 562.89 407.658 561.219 412.291C560.739 413.666 560.564 415.151 560.71 416.618C560.855 418.085 561.317 419.491 562.054 420.714C562.054 420.714 563.449 428.228 561.502 428.228C559.556 428.228 556.207 439.447 556.207 439.447C556.207 439.447 551.47 450.984 554.26 456.285C557.05 461.586 563.173 479.351 563.173 479.351C563.173 479.351 553.424 472.806 550.635 461.895C550.635 461.895 526.96 441.317 508.574 454.382L511.886 389.61Z" fill="#DFE5EE"/>
<path opacity="0.1" d="M551.433 368.414C551.433 368.414 511.05 396.163 512.997 420.497C512.997 420.497 535.56 375.894 551.433 368.414Z" fill="black"/>
<path opacity="0.1" d="M516.406 394.777L516.6 432.777C508.962 433.161 501.764 432.051 496.072 426.516C492.112 422.66 489.807 417.334 488.614 411.573C487.726 406.932 487.4 402.179 487.644 397.44C487.64 397.393 487.64 397.346 487.644 397.298C488.114 386.805 490.269 376.311 489.136 365.885C488.002 355.458 482.355 344.455 473.136 342.26C471.316 341.817 469.272 341.659 467.975 340.165C466.543 338.495 466.61 335.899 466.766 333.586L467.035 329.688C467.102 328.686 467.132 327.693 467.132 326.699C467.126 317.836 464.372 309.25 459.338 302.408C454.305 295.565 447.304 290.891 439.534 289.183L439.235 289.125C436.64 288.541 433.939 287.965 431.344 288.632C426.406 289.91 423.213 295.269 418.663 297.815C409.937 302.69 395.384 297.356 386.247 295.678C385.65 295.57 385.083 295.444 384.539 295.302C384.331 293.282 384.229 291.25 384.233 289.217C384.236 280.957 385.935 272.808 389.198 265.399C392.461 257.99 397.201 251.519 403.052 246.486C408.903 241.452 415.709 237.989 422.946 236.365C430.182 234.742 437.655 235 444.788 237.121C451.921 239.241 458.523 243.167 464.085 248.595C469.648 254.024 474.022 260.81 476.87 268.43C479.718 276.05 480.964 284.301 480.512 292.545C480.06 300.789 477.922 308.807 474.263 315.98C474.404 316.298 474.561 316.615 474.725 316.915C484.862 335.698 517.368 323.819 517.368 323.819L519.322 390.845L516.406 394.777Z" fill="black"/>
<path d="M420.416 296.889C424.937 294.334 428.129 288.975 433.097 287.706C435.685 287.038 438.385 287.614 440.996 288.19L441.294 288.257C449.51 290.076 456.844 295.205 461.907 302.672C466.97 310.138 469.41 319.424 468.765 328.77L468.497 332.668C468.333 334.972 468.266 337.585 469.713 339.238C471.003 340.732 473.047 340.908 474.867 341.325C484.086 343.529 489.732 354.473 490.866 364.958C492 375.443 489.807 385.97 489.374 396.505C488.942 407.04 490.672 418.669 497.788 425.59C508.977 436.442 525.983 430.265 540.789 429.271C534.24 429.271 529.332 421.708 528.974 414.395C528.616 407.082 531.525 400.12 534.307 393.525C537.089 386.93 539.879 379.834 539.26 372.538C538.41 362.521 531.353 354.498 528.653 344.856C525.506 333.636 528.541 321.59 529.966 309.928C532.644 288.09 528.474 263.505 513.37 249.388C507.045 243.486 499.31 239.855 492.358 234.913C479.902 226.072 470.078 213.108 457.487 204.509C444.897 195.911 427.219 192.722 416.232 203.741C411.98 208.007 409.235 213.926 404.864 218.042C396.324 226.097 382.749 226.248 375.901 236.132C370.009 244.638 371.605 256.718 373.492 267.278C376.006 281.361 374.589 292.322 388.037 294.827C397.137 296.438 411.682 301.772 420.416 296.889Z" fill="#603556"/>
<path opacity="0.1" d="M531.227 422.543C520.448 424.02 509.767 424.78 501.92 417.167C494.804 410.246 493.052 398.626 493.507 388.082C493.962 377.539 496.14 367.003 494.998 356.527C493.857 346.05 488.218 335.106 478.999 332.902C477.179 332.468 475.143 332.309 473.845 330.815C472.405 329.145 472.465 326.541 472.629 324.237L472.898 320.338C473.542 310.994 471.102 301.709 466.039 294.244C460.976 286.778 453.641 281.651 445.426 279.834L445.128 279.767C442.517 279.191 439.817 278.615 437.229 279.283C432.291 280.56 429.099 285.961 424.549 288.465C415.814 293.349 401.277 288.015 392.125 286.337C378.698 283.874 380.101 272.896 377.58 258.788C376.17 250.908 374.924 242.176 376.834 234.713C376.476 235.138 376.133 235.547 375.804 236.057C369.912 244.563 371.508 256.643 373.395 267.203C375.909 281.286 374.492 292.247 387.94 294.751C397.085 296.421 411.63 301.764 420.364 296.88C424.884 294.326 428.077 288.966 433.044 287.697C435.633 287.03 438.333 287.606 440.943 288.182L441.242 288.248C449.458 290.068 456.792 295.197 461.855 302.663C466.918 310.13 469.358 319.416 468.713 328.761L468.445 332.66C468.28 334.964 468.213 337.577 469.66 339.23C470.951 340.724 472.995 340.899 474.815 341.317C484.034 343.521 489.68 354.465 490.814 364.95C491.948 375.435 489.762 385.962 489.322 396.497C488.882 407.032 490.62 418.661 497.736 425.581C508.924 436.434 525.931 430.256 540.737 429.263C536.716 429.288 533.337 426.433 531.227 422.543Z" fill="black"/>
<path d="M228.512 450.392L274.497 431.191C275.584 430.737 276.788 430.784 277.844 431.323C278.9 431.861 279.721 432.847 280.128 434.063C280.534 435.28 280.492 436.627 280.011 437.809C279.53 438.99 278.649 439.91 277.563 440.366L231.578 459.566L221.717 458.464L228.512 450.392Z" fill="#5C5C8E"/>
<path opacity="0.1" d="M278.741 432.494C279.146 433.711 279.103 435.059 278.621 436.241C278.138 437.423 277.256 438.342 276.168 438.796L230.153 458.064L222.754 457.229L221.688 458.498L231.548 459.6L277.533 440.399C278.619 439.944 279.5 439.024 279.981 437.842C280.462 436.66 280.504 435.313 280.099 434.096C279.76 433.082 279.13 432.222 278.308 431.65C278.474 431.917 278.619 432.199 278.741 432.494Z" fill="white"/>
<path d="M228.52 450.392L231.578 459.566L223.493 458.656L221.725 458.456L224.142 455.584L228.52 450.392Z" fill="#EFC8C4"/>
<path d="M224.134 455.559C224.323 455.717 224.485 455.912 224.611 456.135C224.687 456.269 224.727 456.424 224.727 456.582C224.727 456.74 224.687 456.895 224.611 457.028C224.484 457.175 224.335 457.297 224.171 457.387C223.987 457.526 223.832 457.708 223.718 457.922C223.605 458.136 223.535 458.375 223.515 458.623L221.74 458.431L224.134 455.559Z" fill="#727A9C"/>
<path d="M372.895 508.986C372.895 508.986 412.726 499.628 479.558 511.491L453.378 489.986L405.745 479.075L372.045 489.093L372.895 508.986Z" fill="white"/>
<path opacity="0.1" d="M372.895 508.986C372.895 508.986 412.726 499.628 479.558 511.491L453.378 489.986L405.745 479.075L372.045 489.093L372.895 508.986Z" fill="black"/>
<path d="M368.226 519.104C368.226 519.104 388.283 458.381 491.299 519.296L454.325 492.666C454.325 492.666 365.75 465.276 355.516 496.84L368.226 519.104Z" fill="white"/>
<path opacity="0.1" d="M368.226 519.062C368.226 519.062 388.283 454.14 491.299 520.231L454.325 491.347C454.325 491.347 365.72 458.589 355.464 492.875L368.226 519.062Z" fill="black"/>
<path d="M368.226 519.087C368.226 519.087 388.283 453.205 491.299 519.296L454.325 490.412C454.325 490.412 365.75 458.589 355.516 492.916L368.226 519.087Z" fill="white"/>
<path opacity="0.1" d="M368.226 519.104C368.226 519.104 388.283 445.884 491.299 520.231L454.295 487.732C454.295 487.732 365.72 454.34 355.486 492.875L368.226 519.104Z" fill="black"/>
<path d="M368.226 519.062C368.226 519.062 388.283 444.949 491.299 519.296L454.295 486.797C454.295 486.797 365.72 453.405 355.486 491.94L368.226 519.062Z" fill="white"/>
<path opacity="0.1" d="M677.28 512.083C677.28 512.083 652.554 541.727 674.811 556.128C674.811 556.128 677.72 560.051 681.875 557.998C681.875 557.998 680.473 556.603 683.285 553.915C684.279 552.951 685.168 551.858 685.933 550.66C686.97 549.042 687.509 547.091 687.469 545.1C687.469 545.1 690.706 533.337 680.421 518.069C680.421 518.069 679.488 512.96 678.698 512.401L676.818 519.521C676.818 519.521 681.539 520.866 683.315 524.889C683.315 524.889 677.094 519.421 676.49 520.565C676.37 520.799 675.647 524.397 675.647 524.397C675.647 524.397 683.852 526.768 686.418 533.079C686.418 533.079 679.787 525.457 675.363 525.757L674.558 531.25C674.558 531.25 683.337 533.287 686.492 540.35C686.492 540.35 679.317 532.645 674.438 532.469L674.297 537.987C674.297 537.987 682.822 540.158 685.425 546.052C685.425 546.052 676.333 538.096 674.342 539.256C674.342 539.256 674.483 544.34 675.087 545.667C675.087 545.667 681.174 547.337 682.412 550.96C682.412 550.96 675.833 546.36 675.266 547.062C675.266 547.062 677.034 553.623 679.496 556.42C679.496 556.42 675.587 552.588 674.364 547.421C674.364 547.421 672.708 550.651 673.126 553.824C673.126 553.824 670.687 550.802 673.954 545.826C673.954 545.826 672.76 540.65 673.059 539.832C673.059 539.832 669.217 544.232 668.233 548.18C668.233 548.18 667.487 543.238 673.051 538.405V532.845C673.051 532.845 667.696 538.363 666.592 541.777C666.592 541.777 666.517 536.602 673.163 531.451L673.909 526.05C673.909 526.05 668.971 530.407 667.009 533.913C667.009 533.913 667.86 529.088 674.17 524.514L675.043 520.974C675.043 520.974 671.492 524.23 670.567 525.265C669.642 526.3 669.292 526.1 669.292 526.1C670.745 523.301 672.862 521.006 675.408 519.471C675.408 519.471 677.691 512.275 677.28 512.083Z" fill="#6C63FF"/>
<path opacity="0.1" d="M787.815 29.7356C787.815 29.7356 754.779 46.4316 770.353 69.2968C770.353 69.2968 771.688 74.1804 776.223 74.0802C776.223 74.0802 775.41 72.1852 778.931 70.9163C780.182 70.4588 781.379 69.8337 782.496 69.0547C784.011 68.01 785.181 66.4425 785.83 64.5885C785.83 64.5885 792.872 55.1386 788.642 36.6144C788.642 36.6144 789.545 31.497 789.008 30.6372L784.816 36.3973C784.816 36.3973 788.71 39.6697 788.963 44.1526C788.963 44.1526 785.114 36.4224 784.16 37.2238C783.966 37.3824 782.064 40.3877 782.064 40.3877C782.064 40.3877 788.777 46.1144 789.008 53.0516C789.008 53.0516 785.517 43.1508 781.325 41.5146L778.692 46.2396C778.692 46.2396 786.091 51.9079 786.584 59.7884C786.584 59.7884 782.616 49.5872 778.178 47.3165L776.141 52.3253C776.141 52.3253 783.265 58.0103 783.6 64.5718C783.6 64.5718 777.954 53.302 775.716 53.5191C775.716 53.5191 774.098 58.2607 774.224 59.755C774.224 59.755 779.252 63.929 779.162 67.8025C779.162 67.8025 774.687 60.7234 773.941 61.1241C773.941 61.1241 773.307 67.9361 774.62 71.5842C774.62 71.5842 772.33 66.3583 772.986 61.0657C772.986 61.0657 770.338 63.3363 769.637 66.4418C769.637 66.4418 768.429 62.5934 773.158 59.4128C773.158 59.4128 773.836 54.1285 774.396 53.5024C774.396 53.5024 769.331 55.8983 767.079 59.0872C767.079 59.0872 768.086 54.2036 774.896 52.15L776.835 47.041C776.835 47.041 769.995 49.8126 767.795 52.4839C767.795 52.4839 769.51 47.6755 777.417 45.8055L779.96 41.1473C779.96 41.1473 773.904 43.0423 770.883 45.4215C770.883 45.4215 773.337 41.3477 780.736 39.845L782.757 36.9566C782.757 36.9566 778.357 38.4259 777.126 38.9768C775.895 39.5278 775.634 39.2022 775.634 39.2022C777.952 37.2389 780.713 36.0364 783.608 35.7295C783.608 35.7295 788.083 30.0695 787.815 29.7356Z" fill="#6C63FF"/>
<path opacity="0.1" d="M474.263 40.0704C474.263 40.0704 424.631 55.9317 448.76 79.5398C448.76 79.5398 450.901 84.5486 457.771 84.5486C457.771 84.5486 456.488 82.6119 461.799 81.4348C463.627 81.0232 465.419 80.431 467.154 79.665C469.2 78.8626 470.941 77.3053 472.092 75.2489C472.092 75.2489 482.535 65.8992 475.68 47.0494C475.68 47.0494 476.925 41.907 476.09 41.0221L469.884 46.7154C469.884 46.7154 475.851 50.1465 476.351 54.6794C476.351 54.6794 470.332 46.7572 468.892 47.5336C468.601 47.6922 465.789 50.6641 465.789 50.6641C465.789 50.6641 476.142 56.6579 476.612 63.6786C476.612 63.6786 471.092 53.5692 464.678 51.791L460.799 56.4826C460.799 56.4826 472.137 62.4347 473.069 70.4154C473.069 70.4154 466.819 59.9888 460.046 57.5595L457.062 62.5683C457.062 62.5683 467.982 68.5288 468.698 75.1738C468.698 75.1738 459.874 63.6118 456.488 63.7537C456.488 63.7537 454.153 68.5121 454.362 70.0231C454.362 70.0231 462.075 74.4308 462.037 78.3043C462.037 78.3043 455.071 71.0081 453.922 71.3922C453.922 71.3922 453.131 78.2626 455.205 81.9858C455.205 81.9858 451.61 76.6347 452.475 71.3087C452.475 71.3087 448.529 73.5209 447.537 76.6347C447.537 76.6347 445.613 72.7195 452.699 69.6474C452.699 69.6474 453.601 64.3214 454.429 63.7036C454.429 63.7036 446.821 65.9743 443.487 69.1299C443.487 69.1299 444.889 64.2212 455.153 62.3513L457.972 57.2423C457.972 57.2423 447.679 59.8469 444.412 62.4765C444.412 62.4765 446.896 57.668 458.83 55.9984L462.559 51.3653C462.559 51.3653 453.43 53.0933 448.91 55.4141C448.91 55.4141 452.527 51.3653 463.693 50.0713L466.677 47.2163C466.677 47.2163 460.046 48.5687 458.196 49.0863C456.346 49.6039 455.958 49.2699 455.958 49.2699C459.686 47.2499 463.753 46.1347 467.893 45.9975C467.893 45.9975 474.695 40.4211 474.263 40.0704Z" fill="#6C63FF"/>
<path opacity="0.1" d="M620.689 659.008C620.689 659.008 645.677 629.632 623.546 614.989C623.546 614.989 620.667 611.032 616.497 613.036C616.497 613.036 617.892 614.447 615.058 617.11C614.056 618.063 613.157 619.145 612.38 620.332C611.326 621.937 610.771 623.884 610.799 625.875C610.799 625.875 607.45 637.604 617.609 652.981C617.609 652.981 618.496 658.098 619.279 658.674L621.226 651.57C621.226 651.57 616.512 650.176 614.774 646.136C614.774 646.136 620.943 651.662 621.554 650.527C621.681 650.293 622.435 646.712 622.435 646.712C622.435 646.712 614.23 644.207 611.738 637.913C611.738 637.913 618.302 645.61 622.733 645.351L623.583 639.866C623.583 639.866 614.826 637.738 611.716 630.684C611.716 630.684 618.824 638.464 623.703 638.698L623.889 633.171C623.889 633.171 615.378 630.867 612.798 624.94C612.798 624.94 621.823 633.004 623.822 631.861C623.822 631.861 623.725 626.785 623.076 625.449C623.076 625.449 617.005 623.663 615.796 620.073C615.796 620.073 622.338 624.748 622.905 624.047C622.905 624.047 621.196 617.469 618.757 614.647C618.757 614.647 622.636 618.521 623.815 623.696C623.815 623.696 625.5 620.482 625.105 617.31C625.105 617.31 627.522 620.366 624.21 625.299C624.21 625.299 625.359 630.492 625.053 631.301C625.053 631.301 628.931 626.944 629.946 623.045C629.946 623.045 630.692 627.996 625.045 632.762L624.971 638.322C624.971 638.322 630.371 632.862 631.505 629.456C631.505 629.456 631.505 634.641 624.844 639.716L624.098 645.109C624.098 645.109 629.073 640.801 631.065 637.32C631.065 637.32 630.17 642.129 623.822 646.637L622.919 650.168C622.919 650.168 626.5 646.954 627.455 645.927C628.409 644.9 628.737 645.092 628.737 645.092C627.262 647.878 625.124 650.149 622.561 651.654C622.561 651.654 620.316 658.808 620.689 659.008Z" fill="#6C63FF"/>
<path opacity="0.1" d="M376.983 1.03543C376.983 1.03543 381.242 41.3062 405.439 31.5891C405.439 31.5891 409.996 31.6309 411.279 26.7556C411.279 26.7556 409.414 27.0562 409.4 22.9156C409.382 21.4426 409.21 19.9771 408.885 18.5496C408.455 16.6182 407.473 14.8972 406.088 13.6493C406.088 13.6493 400.15 3.28105 383.062 2.26259C383.062 2.26259 378.974 -0.24181 378.079 0.0754147L381.727 6.27798C381.727 6.27798 385.687 3.10574 389.581 4.19098C389.581 4.19098 381.839 5.97746 382.234 7.22966C382.309 7.48844 384.293 10.4186 384.293 10.4186C384.293 10.4186 391.267 4.90891 397.234 6.78721C397.234 6.78721 387.754 7.52184 385.098 11.5038L388.283 15.7446C388.283 15.7446 395.339 9.5504 402.209 11.3953C402.209 11.3953 392.319 12.564 389.044 16.6128L392.759 20.3026C392.759 20.3026 399.74 14.4089 405.439 15.9951C405.439 15.9951 394.131 18.633 393.639 21.079C393.639 21.079 397.197 24.2345 398.509 24.5685C398.509 24.5685 403.611 20.4696 406.849 21.7218C406.849 21.7218 399.464 24.3765 399.576 25.3114C399.576 25.3114 405.193 28.0329 408.691 27.7324C408.691 27.7324 403.552 28.5672 399.24 26.3132C399.24 26.3132 400.374 29.811 402.813 31.5057C402.813 31.5057 399.173 31.6309 397.883 25.6621C397.883 25.6621 393.587 23.3413 393.221 22.5649C393.221 22.5649 393.743 28.684 395.779 32.0483C395.779 32.0483 391.916 29.5439 392.214 21.6216L388.485 18.0069C388.485 18.0069 388.79 26.1462 390.402 29.3018C390.402 29.3018 386.821 26.021 387.597 17.0135L384.397 12.898C384.397 12.898 384.181 19.927 385.3 23.8672C385.3 23.8672 382.562 20.0271 383.517 11.6791L381.66 8.64882C381.66 8.64882 381.593 13.7828 381.66 15.2688C381.727 16.7547 381.406 16.8966 381.406 16.8966C380.426 13.8379 380.224 10.5343 380.824 7.35487C380.824 7.35487 377.356 0.835081 376.983 1.03543Z" fill="#6C63FF"/>
<path opacity="0.1" d="M557.833 567.673C557.833 567.673 522.91 556.82 521.791 585.571C521.791 585.571 520.031 590.279 523.574 593.451C523.574 593.451 524.029 591.415 527.46 592.959C528.684 593.501 529.961 593.879 531.264 594.086C533.026 594.37 534.823 594.001 536.381 593.034C536.381 593.034 547.196 590.813 554.536 573.55C554.536 573.55 558.153 570.269 558.265 569.217L551.754 570.645C551.754 570.645 552.872 575.954 550.5 579.577C550.5 579.577 551.992 570.878 550.776 570.812C550.53 570.812 547.353 571.738 547.353 571.738C547.353 571.738 549.262 580.971 545.451 586.439C545.451 586.439 548.434 576.338 546.144 572.081L541.415 573.825C541.415 573.825 543.862 583.476 539.73 589.887C539.73 589.887 542.519 579.21 540.401 574.284L535.97 576.697C535.97 576.697 538.208 586.164 534.725 591.473C534.725 591.473 536.828 578.767 534.986 577.323C534.986 577.323 531.033 579.828 530.264 581.046C530.264 581.046 531.756 587.883 529.459 590.763C529.459 590.763 530.055 582.107 529.242 581.873C529.242 581.873 524.857 586.656 523.783 590.396C523.783 590.396 525.013 584.744 528.541 581.146C528.541 581.146 525.215 580.996 522.895 582.875C522.895 582.875 524.163 579.059 529.608 580.003C529.608 580.003 533.158 576.422 533.942 576.346C533.942 576.346 528.72 574.56 525.125 575.395C525.125 575.395 528.691 572.356 535.098 575.662L539.513 573.157C539.513 573.157 532.666 570.394 529.451 570.87C529.451 570.87 533.516 568.366 540.64 572.615L545.249 570.853C545.249 570.853 539.521 567.973 535.836 567.639C535.836 567.639 540.05 566.262 546.592 570.411L549.799 569.635C549.799 569.635 545.578 567.614 544.317 567.13C543.056 566.646 543.064 566.295 543.064 566.295C545.953 566.443 548.749 567.484 551.142 569.301C551.142 569.301 557.855 568.132 557.833 567.673Z" fill="#6C63FF"/>
</g>
<defs>
<linearGradient id="paint0_linear" x1="397.122" y1="500.279" x2="397.122" y2="193.899" gradientUnits="userSpaceOnUse">
<stop stop-color="#808080" stop-opacity="0.25"/>
<stop offset="0.54" stop-color="#808080" stop-opacity="0.12"/>
<stop offset="1" stop-color="#808080" stop-opacity="0.1"/>
</linearGradient>
<clipPath id="clip0">
<rect width="790" height="659" fill="white"/>
</clipPath>
</defs>
</svg>
