<svg width="75" height="75" viewBox="0 0 75 75" fill="none" xmlns="http://www.w3.org/2000/svg">
<path fill-rule="evenodd" clip-rule="evenodd" d="M64.073 10.8986C60.606 7.42996 56.4872 4.68132 51.9537 2.81091C47.4202 0.940501 42.5615 -0.0147429 37.6573 0.000171997C17.0759 0.000171997 0.321428 16.6709 0.313057 37.1653C0.303953 43.6911 2.02415 50.1029 5.29854 55.7478L0 75L19.7963 69.832C25.276 72.8006 31.4101 74.3543 37.6422 74.3521H37.6573C58.2371 74.3521 74.9898 57.6797 74.9999 37.187C75.0123 32.2996 74.0527 27.4585 72.1768 22.9453C70.3009 18.4322 67.5462 14.3372 64.073 10.8986ZM37.6573 68.0793H37.6439C32.0882 68.0809 26.6335 66.5941 21.8471 63.7735L20.7137 63.1038L8.9665 66.1708L12.1021 54.7718L11.3638 53.5999C8.25733 48.6817 6.61145 42.9824 6.61773 37.1653C6.61773 20.1346 20.548 6.27806 37.669 6.27806C45.8822 6.26339 53.7648 9.51165 59.5832 15.3084C65.4016 21.1051 68.6792 28.9756 68.6952 37.1887C68.6885 54.221 54.765 68.0793 37.6573 68.0793ZM54.6813 44.9448C53.7488 44.4794 49.1567 42.2328 48.3063 41.9231C47.4558 41.6134 46.8281 41.4577 46.207 42.3885C45.5859 43.3193 43.7962 45.4019 43.2522 46.0296C42.7081 46.6574 42.164 46.7261 41.2315 46.2607C40.299 45.7953 37.2907 44.8159 33.7265 41.6519C30.9525 39.1893 29.0809 36.1491 28.5368 35.22C27.9927 34.2908 28.4782 33.7869 28.9453 33.3249C29.3655 32.908 29.8777 32.2401 30.3448 31.6976C30.8119 31.1552 30.9676 30.7668 31.2773 30.1474C31.587 29.528 31.433 28.9856 31.2003 28.5219C30.9676 28.0581 29.101 23.4862 28.3242 21.6262C27.5658 19.8149 26.7974 20.061 26.2248 20.0325C25.6808 20.0057 25.053 19.999 24.4352 19.999C23.963 20.0113 23.4983 20.1208 23.0703 20.3207C22.6423 20.5206 22.2601 20.8066 21.9475 21.1608C21.092 22.0916 18.6813 24.3416 18.6813 28.9086C18.6813 33.4755 22.0295 37.8952 22.4916 38.5146C22.9536 39.134 29.0708 48.514 38.4307 52.5369C40.1688 53.2812 41.9447 53.9339 43.751 54.4922C45.986 55.1987 48.02 55.0999 49.6272 54.8605C51.4201 54.5944 55.1517 52.6139 55.9268 50.4443C56.7019 48.2746 56.7036 46.4164 56.4709 46.0296C56.2382 45.6429 55.6154 45.4086 54.6813 44.9448Z" fill="#64C37D"/>
</svg>
